<?xml version="1.0" standalone="no"?>
<!DOCTYPE svg PUBLIC "-//W3C//DTD SVG 20010904//EN"
 "http://www.w3.org/TR/2001/REC-SVG-20010904/DTD/svg10.dtd">
<svg version="1.0" xmlns="http://www.w3.org/2000/svg"
 width="512.000000pt" height="512.000000pt" viewBox="0 0 512.000000 512.000000"
 preserveAspectRatio="xMidYMid meet">

<g transform="translate(0.000000,512.000000) scale(0.100000,-0.100000)"
fill="#000000" stroke="none">
<path d="M1337 5109 c-638 -74 -1151 -529 -1296 -1151 -39 -163 -41 -247 -41
-1400 0 -1267 2 -1296 76 -1525 146 -449 499 -802 953 -953 233 -78 158 -74
1461 -78 829 -2 1198 0 1280 8 512 52 960 360 1185 815 93 189 131 318 155
520 13 122 13 2308 0 2430 -24 203 -63 334 -155 520 -225 454 -668 760 -1177
815 -115 12 -2336 12 -2441 -1z m1421 -1195 c137 -30 245 -112 303 -229 56
-115 52 -308 -10 -420 -38 -69 -70 -90 -139 -89 -60 0 -98 15 -151 59 l-31 27
29 24 c38 31 70 110 78 187 13 146 -53 228 -195 243 -210 22 -345 -155 -329
-432 14 -246 166 -445 402 -530 57 -20 78 -34 51 -34 -39 0 -149 -64 -211
-121 -137 -129 -223 -326 -240 -553 -17 -217 75 -419 225 -496 131 -67 344
-52 527 36 91 43 206 152 242 229 13 28 25 51 26 53 1 2 21 -5 44 -14 47 -19
49 -27 22 -107 -79 -228 -264 -422 -491 -513 -144 -59 -201 -68 -405 -69 -188
0 -191 1 -282 32 -248 87 -413 253 -487 491 -127 407 61 897 391 1018 l53 20
-62 44 c-119 87 -208 214 -242 346 -20 78 -21 231 -1 309 56 222 226 400 450
471 131 42 295 49 433 18z"/>
</g>
</svg>
